<mxfile host="app.diagrams.net" modified="2021-11-08T14:24:33.143Z" agent="5.0 (Macintosh; Intel Mac OS X 10_15_7) AppleWebKit/537.36 (KHTML, like Gecko) Chrome/95.0.4638.69 Safari/537.36" etag="Tp4L6KEm2wi3qpXqelGT" version="15.7.0" type="github">
  <diagram id="C5RBs43oDa-KdzZeNtuy" name="Page-1">
    <mxGraphModel dx="1722" dy="558" grid="1" gridSize="10" guides="1" tooltips="1" connect="1" arrows="1" fold="1" page="1" pageScale="1" pageWidth="827" pageHeight="1169" math="0" shadow="0">
      <root>
        <mxCell id="WIyWlLk6GJQsqaUBKTNV-0" />
        <mxCell id="WIyWlLk6GJQsqaUBKTNV-1" parent="WIyWlLk6GJQsqaUBKTNV-0" />
        <mxCell id="D_9kGCl0Ig5p8GtzUgDv-0" value="УЗО" style="swimlane;fontStyle=0;childLayout=stackLayout;horizontal=1;startSize=30;horizontalStack=0;resizeParent=1;resizeParentMax=0;resizeLast=0;collapsible=1;marginBottom=0;" vertex="1" parent="WIyWlLk6GJQsqaUBKTNV-1">
          <mxGeometry x="-120" y="550" width="80" height="160" as="geometry" />
        </mxCell>
        <mxCell id="D_9kGCl0Ig5p8GtzUgDv-1" value="40А" style="text;strokeColor=none;fillColor=none;align=center;verticalAlign=middle;spacingLeft=4;spacingRight=4;overflow=hidden;points=[[0,0.5],[1,0.5]];portConstraint=eastwest;rotatable=0;" vertex="1" parent="D_9kGCl0Ig5p8GtzUgDv-0">
          <mxGeometry y="30" width="80" height="130" as="geometry" />
        </mxCell>
        <mxCell id="D_9kGCl0Ig5p8GtzUgDv-6" value="С10" style="swimlane;fontStyle=0;childLayout=stackLayout;horizontal=1;startSize=30;horizontalStack=0;resizeParent=1;resizeParentMax=0;resizeLast=0;collapsible=1;marginBottom=0;align=center;" vertex="1" parent="WIyWlLk6GJQsqaUBKTNV-1">
          <mxGeometry y="550" width="40" height="160" as="geometry" />
        </mxCell>
        <mxCell id="D_9kGCl0Ig5p8GtzUgDv-11" value="" style="endArrow=none;html=1;rounded=0;fillColor=#f8cecc;strokeColor=#b85450;" edge="1" parent="WIyWlLk6GJQsqaUBKTNV-1">
          <mxGeometry width="50" height="50" relative="1" as="geometry">
            <mxPoint x="-60" y="750" as="sourcePoint" />
            <mxPoint x="-20" y="750" as="targetPoint" />
          </mxGeometry>
        </mxCell>
        <mxCell id="D_9kGCl0Ig5p8GtzUgDv-13" value="" style="endArrow=none;html=1;rounded=0;entryX=0.75;entryY=1;entryDx=0;entryDy=0;entryPerimeter=0;fillColor=#f8cecc;strokeColor=#b85450;startArrow=none;" edge="1" parent="WIyWlLk6GJQsqaUBKTNV-1" source="D_9kGCl0Ig5p8GtzUgDv-25" target="D_9kGCl0Ig5p8GtzUgDv-1">
          <mxGeometry width="50" height="50" relative="1" as="geometry">
            <mxPoint x="-60" y="750" as="sourcePoint" />
            <mxPoint x="20" y="740" as="targetPoint" />
          </mxGeometry>
        </mxCell>
        <mxCell id="D_9kGCl0Ig5p8GtzUgDv-14" value="" style="endArrow=none;html=1;rounded=0;fillColor=#f8cecc;strokeColor=#b85450;" edge="1" parent="WIyWlLk6GJQsqaUBKTNV-1">
          <mxGeometry width="50" height="50" relative="1" as="geometry">
            <mxPoint x="-20" y="750" as="sourcePoint" />
            <mxPoint x="-20" y="530" as="targetPoint" />
          </mxGeometry>
        </mxCell>
        <mxCell id="D_9kGCl0Ig5p8GtzUgDv-15" value="" style="endArrow=none;html=1;rounded=0;fillColor=#f8cecc;strokeColor=#b85450;" edge="1" parent="WIyWlLk6GJQsqaUBKTNV-1">
          <mxGeometry width="50" height="50" relative="1" as="geometry">
            <mxPoint x="-20" y="530" as="sourcePoint" />
            <mxPoint x="170" y="530" as="targetPoint" />
          </mxGeometry>
        </mxCell>
        <mxCell id="D_9kGCl0Ig5p8GtzUgDv-20" value="" style="endArrow=none;html=1;rounded=0;fillColor=#f8cecc;strokeColor=#b85450;startArrow=none;" edge="1" parent="WIyWlLk6GJQsqaUBKTNV-1" source="D_9kGCl0Ig5p8GtzUgDv-35">
          <mxGeometry width="50" height="50" relative="1" as="geometry">
            <mxPoint x="20" y="530" as="sourcePoint" />
            <mxPoint x="20" y="550" as="targetPoint" />
          </mxGeometry>
        </mxCell>
        <mxCell id="D_9kGCl0Ig5p8GtzUgDv-21" value="С16" style="swimlane;fontStyle=0;childLayout=stackLayout;horizontal=1;startSize=30;horizontalStack=0;resizeParent=1;resizeParentMax=0;resizeLast=0;collapsible=1;marginBottom=0;align=center;" vertex="1" parent="WIyWlLk6GJQsqaUBKTNV-1">
          <mxGeometry x="50" y="550" width="40" height="160" as="geometry" />
        </mxCell>
        <mxCell id="D_9kGCl0Ig5p8GtzUgDv-22" value="С16" style="swimlane;fontStyle=0;childLayout=stackLayout;horizontal=1;startSize=30;horizontalStack=0;resizeParent=1;resizeParentMax=0;resizeLast=0;collapsible=1;marginBottom=0;align=center;" vertex="1" parent="WIyWlLk6GJQsqaUBKTNV-1">
          <mxGeometry x="100" y="550" width="40" height="160" as="geometry" />
        </mxCell>
        <mxCell id="D_9kGCl0Ig5p8GtzUgDv-23" value="С16" style="swimlane;fontStyle=0;childLayout=stackLayout;horizontal=1;startSize=30;horizontalStack=0;resizeParent=1;resizeParentMax=0;resizeLast=0;collapsible=1;marginBottom=0;align=center;" vertex="1" parent="WIyWlLk6GJQsqaUBKTNV-1">
          <mxGeometry x="150" y="550" width="40" height="160" as="geometry" />
        </mxCell>
        <mxCell id="D_9kGCl0Ig5p8GtzUgDv-25" value="" style="shape=waypoint;sketch=0;fillStyle=solid;size=6;pointerEvents=1;points=[];fillColor=#f8cecc;resizable=0;rotatable=0;perimeter=centerPerimeter;snapToPoint=1;align=center;strokeColor=#b85450;" vertex="1" parent="WIyWlLk6GJQsqaUBKTNV-1">
          <mxGeometry x="-80" y="700" width="40" height="40" as="geometry" />
        </mxCell>
        <mxCell id="D_9kGCl0Ig5p8GtzUgDv-28" value="" style="endArrow=none;html=1;rounded=0;fillColor=#f8cecc;strokeColor=#b85450;" edge="1" parent="WIyWlLk6GJQsqaUBKTNV-1" target="D_9kGCl0Ig5p8GtzUgDv-25">
          <mxGeometry width="50" height="50" relative="1" as="geometry">
            <mxPoint x="-60" y="750" as="sourcePoint" />
            <mxPoint x="-60" y="710" as="targetPoint" />
          </mxGeometry>
        </mxCell>
        <mxCell id="D_9kGCl0Ig5p8GtzUgDv-32" value="" style="endArrow=none;html=1;rounded=0;exitDx=0;exitDy=0;fillColor=#f8cecc;strokeColor=#b85450;startArrow=none;" edge="1" parent="WIyWlLk6GJQsqaUBKTNV-1" source="D_9kGCl0Ig5p8GtzUgDv-37">
          <mxGeometry width="50" height="50" relative="1" as="geometry">
            <mxPoint x="-20" y="680" as="sourcePoint" />
            <mxPoint x="70" y="530" as="targetPoint" />
          </mxGeometry>
        </mxCell>
        <mxCell id="D_9kGCl0Ig5p8GtzUgDv-33" value="" style="endArrow=none;html=1;rounded=0;exitDx=0;exitDy=0;fillColor=#f8cecc;strokeColor=#b85450;startArrow=none;" edge="1" parent="WIyWlLk6GJQsqaUBKTNV-1" source="D_9kGCl0Ig5p8GtzUgDv-39">
          <mxGeometry width="50" height="50" relative="1" as="geometry">
            <mxPoint x="-20" y="680" as="sourcePoint" />
            <mxPoint x="120" y="530" as="targetPoint" />
          </mxGeometry>
        </mxCell>
        <mxCell id="D_9kGCl0Ig5p8GtzUgDv-34" value="" style="endArrow=none;html=1;rounded=0;exitDx=0;exitDy=0;fillColor=#f8cecc;strokeColor=#b85450;startArrow=none;" edge="1" parent="WIyWlLk6GJQsqaUBKTNV-1" source="D_9kGCl0Ig5p8GtzUgDv-41">
          <mxGeometry width="50" height="50" relative="1" as="geometry">
            <mxPoint x="-20" y="680" as="sourcePoint" />
            <mxPoint x="170" y="530" as="targetPoint" />
          </mxGeometry>
        </mxCell>
        <mxCell id="D_9kGCl0Ig5p8GtzUgDv-35" value="" style="shape=waypoint;sketch=0;fillStyle=solid;size=6;pointerEvents=1;points=[];fillColor=#f8cecc;resizable=0;rotatable=0;perimeter=centerPerimeter;snapToPoint=1;align=center;strokeColor=#b85450;" vertex="1" parent="WIyWlLk6GJQsqaUBKTNV-1">
          <mxGeometry y="530" width="40" height="40" as="geometry" />
        </mxCell>
        <mxCell id="D_9kGCl0Ig5p8GtzUgDv-36" value="" style="endArrow=none;html=1;rounded=0;fillColor=#f8cecc;strokeColor=#b85450;" edge="1" parent="WIyWlLk6GJQsqaUBKTNV-1" target="D_9kGCl0Ig5p8GtzUgDv-35">
          <mxGeometry width="50" height="50" relative="1" as="geometry">
            <mxPoint x="20" y="530" as="sourcePoint" />
            <mxPoint x="20" y="550" as="targetPoint" />
          </mxGeometry>
        </mxCell>
        <mxCell id="D_9kGCl0Ig5p8GtzUgDv-37" value="" style="shape=waypoint;sketch=0;fillStyle=solid;size=6;pointerEvents=1;points=[];fillColor=#f8cecc;resizable=0;rotatable=0;perimeter=centerPerimeter;snapToPoint=1;align=center;strokeColor=#b85450;" vertex="1" parent="WIyWlLk6GJQsqaUBKTNV-1">
          <mxGeometry x="50" y="530" width="40" height="40" as="geometry" />
        </mxCell>
        <mxCell id="D_9kGCl0Ig5p8GtzUgDv-38" value="" style="endArrow=none;html=1;rounded=0;exitX=0.5;exitY=0;exitDx=0;exitDy=0;fillColor=#f8cecc;strokeColor=#b85450;" edge="1" parent="WIyWlLk6GJQsqaUBKTNV-1" source="D_9kGCl0Ig5p8GtzUgDv-21" target="D_9kGCl0Ig5p8GtzUgDv-37">
          <mxGeometry width="50" height="50" relative="1" as="geometry">
            <mxPoint x="70" y="550" as="sourcePoint" />
            <mxPoint x="70" y="530" as="targetPoint" />
          </mxGeometry>
        </mxCell>
        <mxCell id="D_9kGCl0Ig5p8GtzUgDv-39" value="" style="shape=waypoint;sketch=0;fillStyle=solid;size=6;pointerEvents=1;points=[];fillColor=#f8cecc;resizable=0;rotatable=0;perimeter=centerPerimeter;snapToPoint=1;align=center;strokeColor=#b85450;" vertex="1" parent="WIyWlLk6GJQsqaUBKTNV-1">
          <mxGeometry x="100" y="530" width="40" height="40" as="geometry" />
        </mxCell>
        <mxCell id="D_9kGCl0Ig5p8GtzUgDv-40" value="" style="endArrow=none;html=1;rounded=0;exitX=0.5;exitY=0;exitDx=0;exitDy=0;fillColor=#f8cecc;strokeColor=#b85450;" edge="1" parent="WIyWlLk6GJQsqaUBKTNV-1" source="D_9kGCl0Ig5p8GtzUgDv-22" target="D_9kGCl0Ig5p8GtzUgDv-39">
          <mxGeometry width="50" height="50" relative="1" as="geometry">
            <mxPoint x="120" y="550" as="sourcePoint" />
            <mxPoint x="120" y="530" as="targetPoint" />
          </mxGeometry>
        </mxCell>
        <mxCell id="D_9kGCl0Ig5p8GtzUgDv-41" value="" style="shape=waypoint;sketch=0;fillStyle=solid;size=6;pointerEvents=1;points=[];fillColor=#f8cecc;resizable=0;rotatable=0;perimeter=centerPerimeter;snapToPoint=1;align=center;strokeColor=#b85450;" vertex="1" parent="WIyWlLk6GJQsqaUBKTNV-1">
          <mxGeometry x="150" y="530" width="40" height="40" as="geometry" />
        </mxCell>
        <mxCell id="D_9kGCl0Ig5p8GtzUgDv-42" value="" style="endArrow=none;html=1;rounded=0;exitX=0.5;exitY=0;exitDx=0;exitDy=0;fillColor=#f8cecc;strokeColor=#b85450;" edge="1" parent="WIyWlLk6GJQsqaUBKTNV-1" source="D_9kGCl0Ig5p8GtzUgDv-23" target="D_9kGCl0Ig5p8GtzUgDv-41">
          <mxGeometry width="50" height="50" relative="1" as="geometry">
            <mxPoint x="170" y="550" as="sourcePoint" />
            <mxPoint x="170" y="530" as="targetPoint" />
          </mxGeometry>
        </mxCell>
        <mxCell id="D_9kGCl0Ig5p8GtzUgDv-50" value="" style="rounded=0;whiteSpace=wrap;html=1;align=center;" vertex="1" parent="WIyWlLk6GJQsqaUBKTNV-1">
          <mxGeometry x="-280" y="520" width="120" height="10" as="geometry" />
        </mxCell>
        <mxCell id="D_9kGCl0Ig5p8GtzUgDv-51" value="нулевая шина" style="text;strokeColor=none;fillColor=none;align=center;verticalAlign=bottom;spacingLeft=4;spacingRight=4;overflow=hidden;points=[[0,0.5],[1,0.5]];portConstraint=eastwest;rotatable=0;fontSize=9;strokeWidth=4;horizontal=1;" vertex="1" parent="WIyWlLk6GJQsqaUBKTNV-1">
          <mxGeometry x="-280" y="520" width="120" height="10" as="geometry" />
        </mxCell>
        <mxCell id="D_9kGCl0Ig5p8GtzUgDv-52" value="" style="rounded=0;whiteSpace=wrap;html=1;align=center;" vertex="1" parent="WIyWlLk6GJQsqaUBKTNV-1">
          <mxGeometry x="280" y="520" width="120" height="10" as="geometry" />
        </mxCell>
        <mxCell id="D_9kGCl0Ig5p8GtzUgDv-53" value="шина заземления" style="text;strokeColor=none;fillColor=none;align=center;verticalAlign=bottom;spacingLeft=4;spacingRight=4;overflow=hidden;points=[[0,0.5],[1,0.5]];portConstraint=eastwest;rotatable=0;fontSize=9;strokeWidth=4;horizontal=1;" vertex="1" parent="WIyWlLk6GJQsqaUBKTNV-1">
          <mxGeometry x="280" y="520" width="120" height="10" as="geometry" />
        </mxCell>
        <mxCell id="D_9kGCl0Ig5p8GtzUgDv-54" value="" style="endArrow=none;html=1;rounded=0;fontSize=9;exitX=0.245;exitY=0.998;exitDx=0;exitDy=0;exitPerimeter=0;fillColor=#dae8fc;strokeColor=#6c8ebf;" edge="1" parent="WIyWlLk6GJQsqaUBKTNV-1" source="D_9kGCl0Ig5p8GtzUgDv-1">
          <mxGeometry width="50" height="50" relative="1" as="geometry">
            <mxPoint x="30" y="680" as="sourcePoint" />
            <mxPoint x="-100" y="750" as="targetPoint" />
          </mxGeometry>
        </mxCell>
        <mxCell id="D_9kGCl0Ig5p8GtzUgDv-55" value="" style="endArrow=none;html=1;rounded=0;fontSize=9;fillColor=#dae8fc;strokeColor=#6c8ebf;" edge="1" parent="WIyWlLk6GJQsqaUBKTNV-1">
          <mxGeometry width="50" height="50" relative="1" as="geometry">
            <mxPoint x="-100" y="750" as="sourcePoint" />
            <mxPoint x="-270" y="750" as="targetPoint" />
          </mxGeometry>
        </mxCell>
        <mxCell id="D_9kGCl0Ig5p8GtzUgDv-56" value="" style="endArrow=none;html=1;rounded=0;fontSize=9;entryX=0.083;entryY=1;entryDx=0;entryDy=0;entryPerimeter=0;fillColor=#dae8fc;strokeColor=#6c8ebf;startArrow=none;" edge="1" parent="WIyWlLk6GJQsqaUBKTNV-1" source="D_9kGCl0Ig5p8GtzUgDv-62" target="D_9kGCl0Ig5p8GtzUgDv-51">
          <mxGeometry width="50" height="50" relative="1" as="geometry">
            <mxPoint x="-270" y="750" as="sourcePoint" />
            <mxPoint x="-130" y="520" as="targetPoint" />
          </mxGeometry>
        </mxCell>
        <mxCell id="D_9kGCl0Ig5p8GtzUgDv-61" value="" style="shape=waypoint;sketch=0;fillStyle=solid;size=6;pointerEvents=1;points=[];fillColor=#dae8fc;resizable=0;rotatable=0;perimeter=centerPerimeter;snapToPoint=1;align=center;strokeColor=#6c8ebf;" vertex="1" parent="WIyWlLk6GJQsqaUBKTNV-1">
          <mxGeometry x="-120" y="700" width="40" height="40" as="geometry" />
        </mxCell>
        <mxCell id="D_9kGCl0Ig5p8GtzUgDv-62" value="" style="shape=waypoint;sketch=0;fillStyle=solid;size=6;pointerEvents=1;points=[];fillColor=#dae8fc;resizable=0;rotatable=0;perimeter=centerPerimeter;snapToPoint=1;align=center;strokeColor=#6c8ebf;" vertex="1" parent="WIyWlLk6GJQsqaUBKTNV-1">
          <mxGeometry x="-290" y="510" width="40" height="40" as="geometry" />
        </mxCell>
        <mxCell id="D_9kGCl0Ig5p8GtzUgDv-63" value="" style="endArrow=none;html=1;rounded=0;fontSize=9;entryDx=0;entryDy=0;entryPerimeter=0;fillColor=#dae8fc;strokeColor=#6c8ebf;" edge="1" parent="WIyWlLk6GJQsqaUBKTNV-1" target="D_9kGCl0Ig5p8GtzUgDv-62">
          <mxGeometry width="50" height="50" relative="1" as="geometry">
            <mxPoint x="-270" y="750" as="sourcePoint" />
            <mxPoint x="-270.03999999999996" y="530" as="targetPoint" />
          </mxGeometry>
        </mxCell>
        <mxCell id="D_9kGCl0Ig5p8GtzUgDv-64" value="" style="endArrow=none;html=1;rounded=0;fontSize=9;exitX=0.25;exitY=0;exitDx=0;exitDy=0;fillColor=#dae8fc;strokeColor=#6c8ebf;" edge="1" parent="WIyWlLk6GJQsqaUBKTNV-1" source="D_9kGCl0Ig5p8GtzUgDv-0">
          <mxGeometry width="50" height="50" relative="1" as="geometry">
            <mxPoint x="80" y="630" as="sourcePoint" />
            <mxPoint x="-100" y="360" as="targetPoint" />
          </mxGeometry>
        </mxCell>
        <mxCell id="D_9kGCl0Ig5p8GtzUgDv-65" value="" style="endArrow=none;html=1;rounded=0;fontSize=9;exitX=0.75;exitY=0;exitDx=0;exitDy=0;fillColor=#f8cecc;strokeColor=#b85450;" edge="1" parent="WIyWlLk6GJQsqaUBKTNV-1" source="D_9kGCl0Ig5p8GtzUgDv-0">
          <mxGeometry width="50" height="50" relative="1" as="geometry">
            <mxPoint x="80" y="630" as="sourcePoint" />
            <mxPoint x="-60" y="360" as="targetPoint" />
          </mxGeometry>
        </mxCell>
      </root>
    </mxGraphModel>
  </diagram>
</mxfile>
